# UWRT calibration board: 2 ft x 3 ft dibond sign, 3 mm thick (aluminium skins on a black polyethylene core).
# Origin at the centre of the back (mounting) face; the printed face is at +X 0.003, upright (+Z), with
# +Y to the right as seen from the front. Normals face outward.
mtllib calibration_board.mtl
v 0.003 -0.3048 -0.4572
v 0.003 0.3048 -0.4572
v 0.003 0.3048 0.4572
v 0.003 -0.3048 0.4572
v 0 -0.3048 0.4572
v 0 0.3048 0.4572
v 0 0.3048 -0.4572
v 0 -0.3048 -0.4572
v 0 -0.3048 -0.4572
v 0.003 -0.3048 -0.4572
v 0.003 -0.3048 0.4572
v 0 -0.3048 0.4572
v 0 0.3048 0.4572
v 0.003 0.3048 0.4572
v 0.003 0.3048 -0.4572
v 0 0.3048 -0.4572
v 0 -0.3048 0.4572
v 0.003 -0.3048 0.4572
v 0.003 0.3048 0.4572
v 0 0.3048 0.4572
v 0 0.3048 -0.4572
v 0.003 0.3048 -0.4572
v 0.003 -0.3048 -0.4572
v 0 -0.3048 -0.4572
vt 0 0
vt 1 0
vt 1 1
vt 0 1
vn 1 0 0
vn -1 0 0
vn 0 -1 0
vn 0 1 0
vn 0 0 1
vn 0 0 -1
usemtl print
f 1/1/1 2/2/1 3/3/1
f 1/1/1 3/3/1 4/4/1
usemtl back
f 5//2 6//2 7//2
f 5//2 7//2 8//2
usemtl edge
f 9//3 10//3 11//3
f 9//3 11//3 12//3
usemtl edge
f 13//4 14//4 15//4
f 13//4 15//4 16//4
usemtl edge
f 17//5 18//5 19//5
f 17//5 19//5 20//5
usemtl edge
f 21//6 22//6 23//6
f 21//6 23//6 24//6
