# floor_vent: generated by make_meshes.py
mtllib floor_vent.mtl
v -0.20000 -0.20000 0.00300
v 0.20000 -0.20000 0.00300
v 0.20000 0.20000 0.00300
v -0.20000 0.20000 0.00300
v -0.16000 -0.12000 0.00400
v 0.16000 -0.12000 0.00400
v 0.16000 -0.08000 0.00400
v -0.16000 -0.08000 0.00400
v -0.16000 -0.02000 0.00400
v 0.16000 -0.02000 0.00400
v 0.16000 0.02000 0.00400
v -0.16000 0.02000 0.00400
v -0.16000 0.08000 0.00400
v 0.16000 0.08000 0.00400
v 0.16000 0.12000 0.00400
v -0.16000 0.12000 0.00400
vn 0.00000 0.00000 1.00000
vn 0.00000 0.00000 1.00000
vn 0.00000 0.00000 1.00000
vn 0.00000 0.00000 1.00000
vn 0.00000 0.00000 1.00000
vn 0.00000 0.00000 1.00000
vn 0.00000 0.00000 1.00000
vn 0.00000 0.00000 1.00000
vn 0.00000 0.00000 1.00000
vn 0.00000 0.00000 1.00000
vn 0.00000 0.00000 1.00000
vn 0.00000 0.00000 1.00000
vn 0.00000 0.00000 1.00000
vn 0.00000 0.00000 1.00000
vn 0.00000 0.00000 1.00000
vn 0.00000 0.00000 1.00000
usemtl floor_vent
f 1//1 2//2 3//3 4//4
usemtl floor_slot
f 5//5 6//6 7//7 8//8
f 9//9 10//10 11//11 12//12
f 13//13 14//14 15//15 16//16
