# raised_grates: generated by make_meshes.py
mtllib raised_grates.mtl
v -1.02500 -0.27500 0.05000
v -0.47500 -0.27500 0.05000
v -0.47500 0.27500 0.05000
v -1.02500 0.27500 0.05000
v -1.12500 -0.37500 0.00000
v -0.37500 -0.37500 0.00000
v -0.47500 -0.27500 0.05000
v -1.02500 -0.27500 0.05000
v -0.37500 -0.37500 0.00000
v -0.37500 0.37500 0.00000
v -0.47500 0.27500 0.05000
v -0.47500 -0.27500 0.05000
v -0.37500 0.37500 0.00000
v -1.12500 0.37500 0.00000
v -1.02500 0.27500 0.05000
v -0.47500 0.27500 0.05000
v -1.12500 0.37500 0.00000
v -1.12500 -0.37500 0.00000
v -1.02500 -0.27500 0.05000
v -1.02500 0.27500 0.05000
v -0.27500 -0.27500 0.05000
v 0.27500 -0.27500 0.05000
v 0.27500 0.27500 0.05000
v -0.27500 0.27500 0.05000
v -0.37500 -0.37500 0.00000
v 0.37500 -0.37500 0.00000
v 0.27500 -0.27500 0.05000
v -0.27500 -0.27500 0.05000
v 0.37500 -0.37500 0.00000
v 0.37500 0.37500 0.00000
v 0.27500 0.27500 0.05000
v 0.27500 -0.27500 0.05000
v 0.37500 0.37500 0.00000
v -0.37500 0.37500 0.00000
v -0.27500 0.27500 0.05000
v 0.27500 0.27500 0.05000
v -0.37500 0.37500 0.00000
v -0.37500 -0.37500 0.00000
v -0.27500 -0.27500 0.05000
v -0.27500 0.27500 0.05000
v 0.47500 -0.27500 0.05000
v 1.02500 -0.27500 0.05000
v 1.02500 0.27500 0.05000
v 0.47500 0.27500 0.05000
v 0.37500 -0.37500 0.00000
v 1.12500 -0.37500 0.00000
v 1.02500 -0.27500 0.05000
v 0.47500 -0.27500 0.05000
v 1.12500 -0.37500 0.00000
v 1.12500 0.37500 0.00000
v 1.02500 0.27500 0.05000
v 1.02500 -0.27500 0.05000
v 1.12500 0.37500 0.00000
v 0.37500 0.37500 0.00000
v 0.47500 0.27500 0.05000
v 1.02500 0.27500 0.05000
v 0.37500 0.37500 0.00000
v 0.37500 -0.37500 0.00000
v 0.47500 -0.27500 0.05000
v 0.47500 0.27500 0.05000
vn 0.00000 0.00000 1.00000
vn 0.00000 0.00000 1.00000
vn 0.00000 0.00000 1.00000
vn 0.00000 0.00000 1.00000
vn 0.00000 -0.44721 0.89443
vn 0.00000 -0.44721 0.89443
vn 0.00000 -0.44721 0.89443
vn 0.00000 -0.44721 0.89443
vn 0.44721 -0.00000 0.89443
vn 0.44721 -0.00000 0.89443
vn 0.44721 -0.00000 0.89443
vn 0.44721 -0.00000 0.89443
vn 0.00000 0.44721 0.89443
vn 0.00000 0.44721 0.89443
vn 0.00000 0.44721 0.89443
vn 0.00000 0.44721 0.89443
vn -0.44721 0.00000 0.89443
vn -0.44721 0.00000 0.89443
vn -0.44721 0.00000 0.89443
vn -0.44721 0.00000 0.89443
vn 0.00000 0.00000 1.00000
vn 0.00000 0.00000 1.00000
vn 0.00000 0.00000 1.00000
vn 0.00000 0.00000 1.00000
vn 0.00000 -0.44721 0.89443
vn 0.00000 -0.44721 0.89443
vn 0.00000 -0.44721 0.89443
vn 0.00000 -0.44721 0.89443
vn 0.44721 -0.00000 0.89443
vn 0.44721 -0.00000 0.89443
vn 0.44721 -0.00000 0.89443
vn 0.44721 -0.00000 0.89443
vn 0.00000 0.44721 0.89443
vn 0.00000 0.44721 0.89443
vn 0.00000 0.44721 0.89443
vn 0.00000 0.44721 0.89443
vn -0.44721 0.00000 0.89443
vn -0.44721 0.00000 0.89443
vn -0.44721 0.00000 0.89443
vn -0.44721 0.00000 0.89443
vn 0.00000 0.00000 1.00000
vn 0.00000 0.00000 1.00000
vn 0.00000 0.00000 1.00000
vn 0.00000 0.00000 1.00000
vn 0.00000 -0.44721 0.89443
vn 0.00000 -0.44721 0.89443
vn 0.00000 -0.44721 0.89443
vn 0.00000 -0.44721 0.89443
vn 0.44721 -0.00000 0.89443
vn 0.44721 -0.00000 0.89443
vn 0.44721 -0.00000 0.89443
vn 0.44721 -0.00000 0.89443
vn 0.00000 0.44721 0.89443
vn 0.00000 0.44721 0.89443
vn 0.00000 0.44721 0.89443
vn 0.00000 0.44721 0.89443
vn -0.44721 0.00000 0.89443
vn -0.44721 0.00000 0.89443
vn -0.44721 0.00000 0.89443
vn -0.44721 0.00000 0.89443
usemtl grate_top
f 1//1 2//2 3//3 4//4
f 21//21 22//22 23//23 24//24
f 41//41 42//42 43//43 44//44
usemtl grate_side
f 5//5 6//6 7//7 8//8
f 9//9 10//10 11//11 12//12
f 13//13 14//14 15//15 16//16
f 17//17 18//18 19//19 20//20
f 25//25 26//26 27//27 28//28
f 29//29 30//30 31//31 32//32
f 33//33 34//34 35//35 36//36
f 37//37 38//38 39//39 40//40
f 45//45 46//46 47//47 48//48
f 49//49 50//50 51//51 52//52
f 53//53 54//54 55//55 56//56
f 57//57 58//58 59//59 60//60
